:SAMPLES-PER-SECOND 30
:FRAME-RANGE 1-3535
:FULLY-SPECIFIED
:DEGREES
3425
root  49.6483 34.3595 8.19235 0.996155 -61.1503 -8.22559
RightUpLeg  -79.867 -7.10638 -4.66642
RightLeg  114.151 2.30592 -3.88423
RightFoot  -24.7003 0.0438458 1.8041
RightToes  5.38503e-012 1.26228e-014 -6.01869e-014
Spine  20.4573 0.196357 -5.91222
Spine1  -5.55687 0.776543 -4.35282
HEad  10.3992 -21.7112 15.2761
LeftShoulder1  3.86127 -9.88526 -23.2722
LeftArm  0.314758 -20.1255 -68.1147
LeftForeArm  -1.24326 8.06034 -13.8228
LeftHand  -0.0697847 4.37799 5.89266
RightShoulder  2.92687 6.64394 23.3355
RightArm  -26.0521 22.7923 51.4706
RightForeArm  48.592 -5.61853 1.17305
RightHand  -0.365992 -1.35724 -10.4317
LeftUpLeg  -18.2688 6.82016 14.2502
LeftLeg  58.4605 -1.88487 -2.72789
LeftFoot  -33.4544 -0.943271 -5.85709
LeftToes  8.9788e-011 3.29689e-010 2.1201e-011
3426
root  48.8558 34.6982 8.25583 -0.00500488 -63.5212 -7.27747
RightUpLeg  -72.7558 -7.53679 -6.2782
RightLeg  103.995 1.52197 -4.11153
RightFoot  -23.9272 0.0322304 1.76264
RightToes  5.38503e-012 1.26228e-014 -6.01869e-014
Spine  17.2808 -0.215309 -7.69741
Spine1  -3.20566 -0.105861 -2.77962
HEad  12.0827 -19.4459 14.3838
LeftShoulder1  3.79565 -10.0537 -22.3601
LeftArm  2.85297 -19.6393 -68.5416
LeftForeArm  0.62742 8.19735 -14.7603
LeftHand  0.0214991 6.42317 5.57396
RightShoulder  2.82171 6.30499 23.2716
RightArm  -19.4712 22.1017 50.2337
RightForeArm  47.6209 -6.43413 5.89963
RightHand  -0.395979 -0.877075 -10.1439
LeftUpLeg  -14.4701 7.11548 14.2127
LeftLeg  55.4918 -1.12829 -1.22232
LeftFoot  -33.5428 -1.20434 -7.16306
LeftToes  8.9788e-011 3.29689e-010 2.1201e-011
3427
root  47.8488 35.1516 8.34955 -0.974182 -64.8766 -7.09174
RightUpLeg  -62.1335 -8.84817 -7.17327
RightLeg  90.2633 0.512273 -5.56169
RightFoot  -23.1117 0.131943 2.79932
RightToes  5.38503e-012 1.26228e-014 -6.01869e-014
Spine  14.6577 -1.00797 -8.89884
Spine1  -1.28991 -1.37939 -1.20688
HEad  14.6629 -17.0903 12.6129
LeftShoulder1  3.84896 -10.3875 -22.0362
LeftArm  4.78461 -19.4242 -68.775
LeftForeArm  4.13616 8.15035 -15.1321
LeftHand  -0.10272 3.32781 4.98201
RightShoulder  2.7095 5.92507 23.2594
RightArm  -12.9323 21.1669 47.6029
RightForeArm  44.7417 -5.45209 10.139
RightHand  -0.336065 -0.904756 -8.64628
LeftUpLeg  -9.4565 7.07562 14.9014
LeftLeg  51.4066 -0.781452 -0.552258
LeftFoot  -33.2182 -1.41855 -8.3654
LeftToes  8.9788e-011 3.29689e-010 2.1201e-011
3428
root  46.7828 35.7647 8.43794 -1.51727 -65.6233 -6.8042
RightUpLeg  -50.7643 -12.2997 -7.28481
RightLeg  73.2244 -1.97942 -8.41946
RightFoot  -20.6864 0.0980396 2.9137
RightToes  5.38503e-012 1.26228e-014 -6.01869e-014
Spine  11.4754 -1.99681 -9.8743
Spine1  0.46474 -2.89508 0.817902
HEad  18.0283 -14.6245 9.98776
LeftShoulder1  3.88704 -10.5391 -22.0008
LeftArm  6.62331 -18.9149 -68.6866
LeftForeArm  8.16435 6.28407 -15.5442
LeftHand  -0.0632066 3.87872 3.46082
RightShoulder  2.38396 4.77688 23.3929
RightArm  -4.16641 20.2975 45.457
RightForeArm  41.1979 3.32501 13.4457
RightHand  -0.258795 -2.30005 -9.4274
LeftUpLeg  -4.44304 7.3703 15.6722
LeftLeg  45.7399 -0.926923 -0.569759
LeftFoot  -31.8175 -1.53691 -9.55307
LeftToes  8.9788e-011 3.29689e-010 2.1201e-011
3429
root  45.5294 36.3689 8.53192 -3.72949 -66.1228 -2.37708
RightUpLeg  -42.2979 -17.053 -8.41386
RightLeg  55.7776 -5.9044 -9.65766
RightFoot  -20.0466 0.153378 3.79882
RightToes  5.38503e-012 1.26228e-014 -6.01869e-014
Spine  6.19706 -3.23869 -11.6454
Spine1  1.54506 -4.2447 2.38778
HEad  22.0659 -12.3182 7.02091
LeftShoulder1  3.80586 -10.5065 -21.4454
LeftArm  11.9472 -16.6938 -68.6613
LeftForeArm  11.4486 -0.0904577 -15.9357
LeftHand  -0.0291002 5.24301 2.449
RightShoulder  1.99311 3.48523 23.2113
RightArm  23.2784 17.9342 44.2297
RightForeArm  15.9813 17.4826 8.67278
RightHand  -0.197553 -3.33949 -10.5274
LeftUpLeg  -0.905697 7.91824 14.2885
LeftLeg  38.6651 -0.839634 -0.314209
LeftFoot  -29.6407 -1.62581 -11.1718
LeftToes  8.9788e-011 3.29689e-010 2.1201e-011
3430
root  44.0449 36.806 8.54925 -5.78119 -70.8108 2.75446
RightUpLeg  -37.3119 -17.5034 -8.29578
RightLeg  40.3589 -8.16391 -7.63233
RightFoot  -20.6107 0.293244 5.33834
RightToes  5.38503e-012 1.26228e-014 -6.01869e-014
Spine  -0.218673 -3.11592 -10.8012
Spine1  2.26022 -3.39032 1.86529
HEad  24.9304 -8.69781 3.52476
LeftShoulder1  3.44885 -9.38405 -21.0481
LeftArm  23.772 -13.742 -68.3573
LeftForeArm  9.47593 -9.42138 -13.9951
LeftHand  -0.0269763 5.33597 3.51205
RightShoulder  1.68728 2.7112 21.795
RightArm  27.2165 15.105 43.0587
RightForeArm  9.56292 26.644 5.22235
RightHand  -0.159926 -3.74503 -10.3477
LeftUpLeg  3.49389 10.3858 12.9148
LeftLeg  31.0242 1.41135 1.29406
LeftFoot  -26.9948 -1.76369 -13.9501
LeftToes  8.9788e-011 3.29689e-010 2.1201e-011
3431
root  42.6595 37.0298 8.49522 -8.39789 -75.6232 7.06439
RightUpLeg  -33.0835 -17.1808 -7.71226
RightLeg  29.2547 -9.55915 -5.96715
RightFoot  -20.0793 0.36731 6.58488
RightToes  5.38503e-012 1.26228e-014 -6.01869e-014
Spine  -3.00286 -2.90897 -8.41481
Spine1  1.61853 -2.94445 1.59991
HEad  25.5516 -3.09164 0.177076
LeftShoulder1  3.01822 -7.99046 -20.5597
LeftArm  36.3028 -9.69106 -66.9268
LeftForeArm  1.87853 -19.592 -7.12334
LeftHand  -0.0588578 4.51766 5.21164
RightShoulder  1.64115 2.83516 20.3844
RightArm  21.4195 13.8978 43.088
RightForeArm  12.2088 32.8604 6.58068
RightHand  -0.100785 -4.37568 -9.67346
LeftUpLeg  7.73517 9.1755 11.1699
LeftLeg  25.6482 6.73751 3.87313
LeftFoot  -24.0958 -1.91931 -18.3234
LeftToes  8.9788e-011 3.29689e-010 2.1201e-011
3432
root  41.3642 37.0927 8.27897 -12.872 -81.4976 12.4528
RightUpLeg  -30.7566 -14.7346 -6.41033
RightLeg  24.6165 -11.2956 -5.80585
RightFoot  -17.3339 0.298371 7.93796
RightToes  5.38503e-012 1.26228e-014 -6.01869e-014
Spine  -5.17873 -2.04373 -5.14672
Spine1  2.91005 -2.18652 1.69802
HEad  24.3719 3.38257 -2.56541
LeftShoulder1  2.76908 -7.35983 -19.7489
LeftArm  29.2025 -5.9361 -63.8439
LeftForeArm  7.06514 -26.8832 -5.40882
LeftHand  -0.0677842 4.43244 5.96253
RightShoulder  1.64759 2.94226 20.005
RightArm  16.9827 14.313 45.1119
RightForeArm  10.7719 37.2453 7.87522
RightHand  -0.0227724 -5.35794 -9.69216
LeftUpLeg  10.5453 8.72995 10.445
LeftLeg  24.9404 11.1708 5.96639
LeftFoot  -20.4267 -1.77435 -23.5592
LeftToes  8.9788e-011 3.29689e-010 2.1201e-011
3433
root  40.21 37.1636 7.86071 -43.6884 -88.7039 43.1489
RightUpLeg  -30.0527 -10.8908 -3.39688
RightLeg  23.4056 -12.2352 -5.94684
RightFoot  -11.3178 -0.078924 9.2087
RightToes  5.38503e-012 1.26228e-014 -6.01869e-014
Spine  -4.17385 -0.354228 -0.660707
Spine1  2.76906 -0.687917 1.85197
HEad  23.8501 10.0074 -4.34989
LeftShoulder1  2.52529 -6.64981 -19.1062
LeftArm  20.5389 -1.7342 -60.795
LeftForeArm  11.2559 -31.2731 -6.22832
LeftHand  -0.0843917 4.25966 6.92634
RightShoulder  1.70332 2.83054 21.4947
RightArm  14.4859 15.9765 50.2032
RightForeArm  6.59767 35.4717 7.61783
RightHand  -0.0880571 -4.63543 -11.0583
LeftUpLeg  11.6119 9.99935 11.428
LeftLeg  29.8158 13.4665 8.55916
LeftFoot  -14.8489 -0.691179 -25.083
LeftToes  8.9788e-011 3.29689e-010 2.1201e-011
3434
root  39.2433 36.9697 7.49862 176.169 -83.8109 -176.708
RightUpLeg  -31.3323 -10.1869 0.565965
RightLeg  25.3662 -4.91597 -2.75681
RightFoot  -9.06379 -0.231108 8.50631
RightToes  5.38503e-012 1.26228e-014 -6.01869e-014
Spine  -0.861886 0.950246 4.28573
Spine1  1.48667 0.7505 1.50203
HEad  22.1717 16.9953 -6.76126
LeftShoulder1  2.34641 -5.69697 -19.8562
LeftArm  14.4585 1.92779 -57.7185
LeftForeArm  12.2642 -32.164 -6.39543
LeftHand  -0.100489 4.19804 8.27679
RightShoulder  1.89385 3.18545 23.0186
RightArm  12.2426 17.7362 56.1028
RightForeArm  4.83804 30.351 6.36258
RightHand  -0.203788 -3.54698 -12.1103
LeftUpLeg  7.07259 9.0482 11.2891
LeftLeg  43.8978 13.8032 14.2001
LeftFoot  -5.80547 0.915476 -18.0895
LeftToes  8.9788e-011 3.29689e-010 2.1201e-011
3435
root  38.5242 36.171 7.43582 169.321 -77.7251 -169.453
RightUpLeg  -34.9721 -10.526 4.33376
RightLeg  31.971 -1.95182 -1.55787
RightFoot  -9.65594 -0.227359 10.9508
RightToes  5.38503e-012 1.26228e-014 -6.01869e-014
Spine  3.87197 1.73326 11.2521
Spine1  0.763518 2.43057 0.576414
HEad  17.78 21.7135 -9.84137
LeftShoulder1  2.35366 -5.2404 -21.4368
LeftArm  11.8773 3.08115 -55.1492
LeftForeArm  11.3069 -29.7323 -5.847
LeftHand  -0.112067 4.14732 9.10617
RightShoulder  2.09871 3.88716 23.0381
RightArm  6.68883 17.7777 62.6531
RightForeArm  7.19341 24.9603 4.97127
RightHand  -0.346578 -2.53453 -13.7919
LeftUpLeg  -2.1997 8.05792 11.6348
LeftLeg  61.9093 5.41866 11.4972
LeftFoot  -0.767786 0.372097 -3.97147
LeftToes  8.9788e-011 3.29689e-010 2.1201e-011
3436
root  37.7169 35.3257 7.36215 169.939 -72.3916 -170.771
RightUpLeg  -37.7915 -11.9844 6.82838
RightLeg  38.9491 -1.8588 -1.891
RightFoot  -7.76582 -0.372489 10.2116
RightToes  5.38503e-012 1.26228e-014 -6.01869e-014
Spine  10.0359 2.25865 17.1185
Spine1  -1.16349 4.74598 -2.76262
HEad  13.9293 24.3987 -12.3562
LeftShoulder1  2.40473 -5.13341 -22.4519
LeftArm  14.5986 1.78363 -54.1681
LeftForeArm  5.41333 -23.2981 -4.7479
LeftHand  -0.149816 3.70824 9.47888
RightShoulder  2.37512 4.72585 23.4741
RightArm  -6.01991 16.4062 67.4498
RightForeArm  14.3951 18.7386 5.64956
RightHand  -0.567615 -1.2836 -15.9539
LeftUpLeg  -10.2621 6.45273 11.4995
LeftLeg  78.9913 0.192065 2.90513
LeftFoot  -4.90788 0.409645 -6.76101
LeftToes  8.9788e-011 3.29689e-010 2.1201e-011
3437
root  36.7253 34.4789 7.21089 170.141 -67.2804 -171.094
RightUpLeg  -40.7563 -12.7107 9.38156
RightLeg  46.287 0.640914 0.387882
RightFoot  -8.29452 -0.163524 4.0272
RightToes  5.38503e-012 1.26228e-014 -6.01869e-014
Spine  14.5089 2.80961 22.2268
Spine1  -2.74015 7.04276 -6.11595
HEad  11.307 26.0103 -14.6737
LeftShoulder1  2.35653 -4.61258 -23.7889
LeftArm  2.43884 -1.38651 -53.7111
LeftForeArm  15.9521 -11.4462 -10.3213
LeftHand  -0.100497 4.38723 9.91433
RightShoulder  2.53823 5.38812 23.0853
RightArm  -22.6329 15.8543 70.9211
RightForeArm  26.0534 8.72409 5.31436
RightHand  -0.750302 -0.313464 -17.1369
LeftUpLeg  -18.678 6.41803 12.7393
LeftLeg  93.1785 -0.202844 -0.742475
LeftFoot  -6.99409 0.31311 -7.14007
LeftToes  8.9788e-011 3.29689e-010 2.1201e-011
3438
root  35.7167 33.5738 7.04495 170.309 -62.9327 -171.16
RightUpLeg  -43.2172 -11.9602 10.7935
RightLeg  53.5288 2.21775 2.82162
RightFoot  -11.0662 -0.074456 -0.195731
RightToes  5.38503e-012 1.26228e-014 -6.01869e-014
Spine  17.6393 2.71202 26.2375
Spine1  -3.8674 8.50986 -9.281
HEad  9.50099 28.2386 -16.4808
LeftShoulder1  2.44242 -4.66912 -24.6996
LeftArm  -5.46815 -4.75125 -53.8212
LeftForeArm  19.0982 1.66124 -11.6402
LeftHand  -0.0961123 3.58309 5.19332
RightShoulder  2.83217 6.39625 23.094
RightArm  -25.9173 17.8919 73.198
RightForeArm  28.921 -4.02607 0.459131
RightHand  -0.726359 -0.64122 -17.705
LeftUpLeg  -27.2992 7.9616 15.3069
LeftLeg  104.165 0.198384 -1.67089
LeftFoot  -8.82289 0.183542 -5.94245
LeftToes  8.9788e-011 3.29689e-010 2.1201e-011
3439
root  34.7277 32.7987 6.8622 171.26 -59.8714 -172.486
RightUpLeg  -44.6892 -11.9743 10.8594
RightLeg  59.8337 2.98993 5.06381
RightFoot  -14.084 -0.18002 -3.54323
RightToes  5.38503e-012 1.26228e-014 -6.01869e-014
Spine  19.4402 2.43648 27.1487
Spine1  -3.52504 8.87805 -9.89119
HEad  7.29492 30.574 -19.0004
LeftShoulder1  2.57311 -4.86923 -25.5886
LeftArm  -5.85557 -8.13569 -54.7179
LeftForeArm  17.307 7.90488 -12.2738
LeftHand  -0.0491521 3.90065 2.33239
RightShoulder  3.1623 7.59872 22.9017
RightArm  -30.5354 20.654 74.7581
RightForeArm  32.7203 -4.95019 -4.56089
RightHand  -0.545835 -1.88009 -17.8797
LeftUpLeg  -35.3233 9.64539 17.4683
LeftLeg  111.184 0.582025 -2.07002
LeftFoot  -11.9695 0.038884 -5.97698
LeftToes  8.9788e-011 3.29689e-010 2.1201e-011
